<?xml version="1.0" encoding="iso-8859-1"?>
<!-- Generator: Adobe Illustrator 16.0.0, SVG Export Plug-In . SVG Version: 6.00 Build 0)  -->
<!DOCTYPE svg PUBLIC "-//W3C//DTD SVG 1.1//EN" "http://www.w3.org/Graphics/SVG/1.1/DTD/svg11.dtd">
<svg version="1.1" id="Capa_1" xmlns="http://www.w3.org/2000/svg" xmlns:xlink="http://www.w3.org/1999/xlink" x="0px" y="0px"
	 width="361.104px" height="361.104px" viewBox="0 0 361.104 361.104" style="enable-background:new 0 0 361.104 361.104;"
	 xml:space="preserve">
<g>
	<g>
		<path d="M91.393,233.861c-19.556,0-35.404,15.842-35.404,35.398c0,19.559,15.848,35.4,35.404,35.4
			c19.562,0,35.406-15.842,35.406-35.4C126.799,249.703,110.955,233.861,91.393,233.861z M91.393,284.651
			c-8.501,0-15.389-6.89-15.389-15.39c0-8.504,6.888-15.391,15.389-15.391s15.395,6.885,15.395,15.391
			C106.788,277.762,99.894,284.651,91.393,284.651z"/>
		<path d="M249.518,233.861c-19.555,0-35.402,15.842-35.402,35.398c0,19.559,15.848,35.4,35.402,35.4
			c19.562,0,35.406-15.842,35.406-35.4C284.924,249.703,269.08,233.861,249.518,233.861z M249.518,284.651
			c-8.5,0-15.389-6.89-15.389-15.39c0-8.504,6.889-15.391,15.389-15.391c8.502,0,15.395,6.885,15.395,15.391
			C264.912,277.762,258.02,284.651,249.518,284.651z"/>
		<path d="M315.875,170.743c-15.418-4.009-28.6-16.337-34.654-28.03l-21.336-40.99c-6.057-11.693-21.783-21.261-34.951-21.261H99.78
			c-13.168,0-27.409,10.202-31.644,22.669l-13.068,38.46c-1.287,5.084-9.761,30.458-27.442,30.458
			C14.458,172.049,0,189.401,0,202.569v45.491c0,13.168,10.773,23.943,23.942,23.943h24.633c-0.058-0.908-0.097-1.822-0.097-2.744
			c0-23.662,19.251-42.91,42.914-42.91c23.664,0,42.917,19.248,42.917,42.91c0,0.922-0.04,1.834-0.097,2.744h72.487
			c-0.057-0.908-0.096-1.822-0.096-2.744c0-23.662,19.25-42.91,42.914-42.91s42.916,19.248,42.916,42.91
			c0,0.922-0.039,1.834-0.098,2.744h44.824c13.17,0,23.943-10.775,23.943-23.943v-35.684
			C361.105,174.07,328.676,174.07,315.875,170.743z M63.209,165.029c3.79-5.898,5.85-12.327,6.394-14.475l11.055-32.537
			c3.583-10.547,15.63-19.178,26.77-19.178h24.82v66.189L63.209,165.029L63.209,165.029z M137.972,206.178H121.78
			c-2.2,0-4-1.799-4-4v-14.01c0-2.199,1.8-4,4-4h16.192c2.2,0,4,1.801,4,4v14.01C141.972,204.379,140.171,206.178,137.972,206.178z
			 M165.278,228.936c0,2.201-1.8,4-4,4h-16.192c-2.2,0-4-1.799-4-4v-14.01c0-2.199,1.8-4,4-4h16.192c2.2,0,4,1.801,4,4V228.936z
			 M168.069,206.178c-2.2,0-4-1.799-4-4v-14.01c0-2.199,1.8-4,4-4h16.192c2.2,0,4,1.801,4,4v14.01c0,2.201-1.8,4-4,4H168.069z
			 M211.245,228.936c0,2.201-1.802,4-4,4h-16.192c-2.199,0-4-1.799-4-4v-14.01c0-2.199,1.801-4,4-4h16.192c2.198,0,4,1.801,4,4
			V228.936z M235.275,202.178c0,2.201-1.801,4-4,4h-16.191c-2.2,0-4-1.799-4-4v-14.01c0-2.199,1.8-4,4-4h16.191c2.199,0,4,1.801,4,4
			V202.178z M156.047,165.029V98.84h57.255c11.142,0,24.444,8.094,29.569,17.986l18.049,34.676
			c2.412,4.656,6.172,9.422,10.822,13.527H156.047z"/>
		<path d="M119.285,73.599h73.523c2.644,0,4.805-2.162,4.805-4.805v-7.546c0-2.643-2.161-4.805-4.805-4.805h-73.523
			c-2.643,0-4.805,2.162-4.805,4.805v7.546C114.48,71.437,116.642,73.599,119.285,73.599z"/>
	</g>
</g>
<g>
</g>
<g>
</g>
<g>
</g>
<g>
</g>
<g>
</g>
<g>
</g>
<g>
</g>
<g>
</g>
<g>
</g>
<g>
</g>
<g>
</g>
<g>
</g>
<g>
</g>
<g>
</g>
<g>
</g>
</svg>
