<?xml version="1.0" encoding="iso-8859-1"?>
<!-- Generator: Adobe Illustrator 16.0.0, SVG Export Plug-In . SVG Version: 6.00 Build 0)  -->
<!DOCTYPE svg PUBLIC "-//W3C//DTD SVG 1.1//EN" "http://www.w3.org/Graphics/SVG/1.1/DTD/svg11.dtd">
<svg version="1.1" id="Capa_1" xmlns="http://www.w3.org/2000/svg" xmlns:xlink="http://www.w3.org/1999/xlink" x="0px" y="0px"
	 width="499.356px" height="499.356px" viewBox="0 0 499.356 499.356" style="enable-background:new 0 0 499.356 499.356;"
	 xml:space="preserve">
<g>
	<path d="M499.356,276.85c-1.121-19.026-9.438-31.059-27.661-39.956c0.014-0.017,0.022-0.038,0.033-0.061
		c-0.332-0.15-0.733-0.298-1.07-0.448c-0.205-0.096-0.383-0.197-0.593-0.295l-0.022,0.038c-9.072-4.005-20.082-7.384-33.127-11.066
		l-92.937-23.854v-39.252c0-34.471-27.939-62.419-62.411-62.419H79.061c-34.465,0-62.414,27.943-62.414,62.419v55.452
		C6.344,228.535,0,243.383,0,259.745v33.98c0,16.756,6.645,31.924,17.397,43.119l7.885,0.148c-0.207,1.965-0.32,3.95-0.32,5.958
		c0,31.409,25.456,56.87,56.868,56.87c31.401,0,56.863-25.461,56.863-56.87c0-1.28-0.112-2.536-0.189-3.792l202.699,3.88
		c0.042,31.366,25.488,56.782,56.864,56.782c30.642,0,55.55-24.257,56.754-54.61l35.985,0.69c5.383-9.221,8.513-53.215,8.513-64.668
		v-2.078c0-0.801-0.053-1.539-0.099-2.295L499.356,276.85z M81.422,381.466c-22.785,0-41.259-20.659-41.259-46.12h26.867
		c-0.317,1.193-0.535,2.43-0.535,3.721c0,8.12,6.588,14.708,14.708,14.708c8.118,0,14.709-6.588,14.709-14.708
		c0-1.291-0.219-2.527-0.539-3.721h27.31C122.684,360.807,104.21,381.466,81.422,381.466z M90.504,222.634H70.221v-6.236h20.283
		V222.634z M178.926,202.166H51.729v-38.384c0-21.313,17.269-38.583,38.579-38.583h88.618V202.166z M228.34,222.634h-20.29v-6.236
		h20.29V222.634z M310.693,202.166H198.688V125.2h73.424c21.306,0,38.581,17.269,38.581,38.583V202.166z M399.75,381.466
		c-22.796,0-41.268-15.057-41.268-40.518h26.34c-0.02,0.312-0.093,0.603-0.093,0.92c0,8.12,6.591,14.711,14.711,14.711
		c8.114,0,14.707-6.591,14.707-14.711c0-0.317-0.069-0.607-0.094-0.92H441C441.005,366.409,422.535,381.466,399.75,381.466z
		 M488.584,277.77c-12.444,0-22.539-11.021-22.539-24.619c0-4.684,1.21-9.056,3.298-12.782
		c17.144,8.203,24.685,18.807,25.824,36.285C493.075,277.354,490.871,277.77,488.584,277.77z"/>
</g>
<g>
</g>
<g>
</g>
<g>
</g>
<g>
</g>
<g>
</g>
<g>
</g>
<g>
</g>
<g>
</g>
<g>
</g>
<g>
</g>
<g>
</g>
<g>
</g>
<g>
</g>
<g>
</g>
<g>
</g>
</svg>
