<?xml version="1.0" encoding="iso-8859-1"?>
<!-- Generator: Adobe Illustrator 18.0.0, SVG Export Plug-In . SVG Version: 6.00 Build 0)  -->
<!DOCTYPE svg PUBLIC "-//W3C//DTD SVG 1.1//EN" "http://www.w3.org/Graphics/SVG/1.1/DTD/svg11.dtd">
<svg version="1.1" id="Capa_1" xmlns="http://www.w3.org/2000/svg" xmlns:xlink="http://www.w3.org/1999/xlink" x="0px" y="0px"
	 viewBox="0 0 414.117 414.117" style="enable-background:new 0 0 414.117 414.117;" xml:space="preserve">
<path d="M413.44,252.913l-29.766-74.282c-2.122-3.99-6.248-6.491-10.765-6.491h-63.377l-69.576-65.9
	c-2.263-2.133-5.244-3.337-8.383-3.337H88.403c-5.29,0-10.014,3.451-11.604,8.514L57.555,172.14H12.153
	C5.423,172.14,0,177.591,0,184.315v31.378v40.734c0,5.23,4.209,9.458,9.443,9.458l29.351-0.012
	c0.063,25.016,20.421,45.341,45.479,45.341c25.009,0,45.412-20.326,45.479-45.341h148.604c0.088,25.016,20.458,45.341,45.474,45.341
	c25.047,0,45.409-20.326,45.485-45.341l35.337,0.012c3.16,0,6.083-1.568,7.834-4.165C414.251,259.131,414.607,255.82,413.44,252.913
	z M84.274,285.237c-10.747,0-19.51-8.743-19.51-19.504c0-10.746,8.763-19.485,19.51-19.485c10.742,0,19.481,8.74,19.481,19.485
	C103.756,276.493,95.017,285.237,84.274,285.237z M159.17,173.946H97.676l13.523-48.103h47.971V173.946z M178.679,173.946v-48.103
	h33.671l47.324,48.103H178.679z M323.83,285.237c-10.747,0-19.47-8.743-19.47-19.504c0-10.746,8.723-19.485,19.47-19.485
	c10.772,0,19.496,8.74,19.496,19.485C343.326,276.493,334.603,285.237,323.83,285.237z"/>
<g>
</g>
<g>
</g>
<g>
</g>
<g>
</g>
<g>
</g>
<g>
</g>
<g>
</g>
<g>
</g>
<g>
</g>
<g>
</g>
<g>
</g>
<g>
</g>
<g>
</g>
<g>
</g>
<g>
</g>
</svg>
