<?xml version="1.0" encoding="iso-8859-1"?>
<!-- Generator: Adobe Illustrator 19.0.0, SVG Export Plug-In . SVG Version: 6.00 Build 0)  -->
<svg version="1.1" id="Layer_1" xmlns="http://www.w3.org/2000/svg" xmlns:xlink="http://www.w3.org/1999/xlink" x="0px" y="0px"
	 viewBox="0 0 512.001 512.001" style="enable-background:new 0 0 512.001 512.001;" xml:space="preserve">
<g>
	<g>
		<path d="M106.716,320.51c-18.187,0-32.984,14.797-32.984,32.984s14.797,32.984,32.984,32.984s32.984-14.797,32.984-32.984
			S124.903,320.51,106.716,320.51z"/>
	</g>
</g>
<g>
	<g>
		<path d="M381.908,243.813H355.78l-11.49-18.339l-38.465-61.393c-0.112-0.181-0.229-0.358-0.348-0.536
			c-16.098-23.808-42.867-38.023-71.606-38.023H115.867c-10.128,0-18.339,8.211-18.339,18.339c0,6.699,3.603,12.541,8.966,15.741
			l-23.751,67.637l-7.404,21.084c-20.457,7.563-36.618,24.034-43.789,44.677H18.339c-2.215,0-4.328,0.412-6.294,1.132
			C5.023,296.704,0,303.428,0,311.341c0,6.784,3.694,12.695,9.17,15.866c2.7,1.564,5.826,2.473,9.17,2.473h9.17v14.645h28.72
			c4.338-23.938,25.318-42.154,50.487-42.154s46.149,18.216,50.487,42.154h230.97c4.338-23.938,25.318-42.154,50.487-42.154
			c24.983,0,45.843,17.947,50.392,41.622c13.06-2.553,22.949-14.077,22.949-27.875v-36.491
			C472.614,256.113,427.746,243.813,381.908,243.813z M281.675,295.462h-23.84c-6.753,0-12.226-5.474-12.226-12.226
			c0-6.753,5.474-12.226,12.226-12.226h23.84c6.753,0,12.226,5.474,12.226,12.226C293.901,289.989,288.427,295.462,281.675,295.462z
			 M115.797,243.815l6.44-18.34l22.219-63.272h89.413c16.447,0,31.77,8.085,41.055,21.644l26.082,41.628l11.49,18.339H115.797z"/>
	</g>
</g>
<g>
	<g>
		<path d="M438.659,320.51c-18.187,0-32.984,14.797-32.984,32.984s14.797,32.984,32.984,32.984s32.984-14.797,32.984-32.984
			S456.847,320.51,438.659,320.51z"/>
	</g>
</g>
<g>
</g>
<g>
</g>
<g>
</g>
<g>
</g>
<g>
</g>
<g>
</g>
<g>
</g>
<g>
</g>
<g>
</g>
<g>
</g>
<g>
</g>
<g>
</g>
<g>
</g>
<g>
</g>
<g>
</g>
</svg>
